<svg width="150" height="49" viewBox="0 0 150 49" fill="none" xmlns="http://www.w3.org/2000/svg">
<g clip-path="url(#clip0)">
<path d="M133.315 38.9317L133.292 36.4398L14.5188 37.526L14.5408 40.0179L133.315 38.9317Z" fill="#353744"/>
<path d="M133.315 38.9364L133.304 37.6898L14.5301 38.7712L14.5411 40.0179L133.315 38.9364Z" fill="#55525B"/>
<path d="M15.0487 37.5008L15.071 39.9995C15.074 40.3445 14.7967 40.6268 14.4515 40.63L6.95106 40.6993C5.91545 40.7089 5.06848 39.8777 5.05927 38.8426C5.05006 37.8076 5.8821 36.9608 6.91771 36.9512L14.4182 36.8819C14.7633 36.8787 15.0457 37.1558 15.0487 37.5008ZM6.30935 38.8311C6.31242 39.176 6.59476 39.4532 6.93994 39.45C7.28512 39.4468 7.56249 39.1645 7.55942 38.8195C7.55635 38.4745 7.274 38.1974 6.92883 38.2006C6.58365 38.2038 6.30628 38.4861 6.30935 38.8311Z" fill="#F04B37"/>
<path d="M8.18925 39.3347C8.1867 39.0474 8.41783 38.8122 8.70549 38.8096L13.914 38.7615C14.2016 38.7588 14.4369 38.9896 14.4395 39.277C14.442 39.5644 14.2109 39.7995 13.9232 39.8022L8.71475 39.8503C8.42709 39.8529 8.19181 39.6221 8.18925 39.3347V39.3347Z" fill="#FF6955"/>
<path d="M145.263 32.8746L145.33 40.3728C145.339 41.4081 144.507 42.2551 143.471 42.2647L137.22 42.3225C134.803 42.3449 132.827 40.4047 132.805 37.989L132.783 35.4896C132.762 33.074 134.703 31.0975 137.12 31.0752L143.371 31.0174C144.407 31.0078 145.254 31.8393 145.263 32.8746ZM137.192 39.1983C136.847 39.2015 136.57 39.4838 136.573 39.8289C136.576 40.174 136.858 40.4512 137.203 40.448L142.829 40.3959C143.174 40.3927 143.452 40.1104 143.449 39.7653C143.446 39.4202 143.163 39.143 142.818 39.1462L137.192 39.1983ZM137.164 36.074C136.819 36.0772 136.542 36.3596 136.545 36.7046C136.548 37.0497 136.83 37.3269 137.176 37.3237L142.801 37.2717C143.147 37.2685 143.424 36.9861 143.421 36.641C143.418 36.296 143.136 36.0188 142.79 36.022L137.164 36.074ZM137.137 32.9497C136.791 32.9529 136.514 33.2353 136.517 33.5804C136.52 33.9255 136.803 34.2026 137.148 34.1995L142.774 34.1474C143.119 34.1442 143.396 33.8618 143.393 33.5168C143.39 33.1717 143.108 32.8945 142.763 32.8977L137.137 32.9497Z" fill="#353744"/>
<path d="M89.3656 26.5735H91.2595V28.5726H89.3656V26.5735Z" fill="#353744"/>
<path d="M90.3125 27.6257C93.799 27.6257 96.6254 24.7994 96.6254 21.3129C96.6254 17.8264 93.799 15 90.3125 15C86.826 15 83.9996 17.8264 83.9996 21.3129C83.9996 24.7994 86.826 27.6257 90.3125 27.6257Z" fill="#55525B"/>
<path d="M90.3125 27.3101C93.6247 27.3101 96.3097 24.625 96.3097 21.3128C96.3097 18.0007 93.6247 15.3156 90.3125 15.3156C87.0003 15.3156 84.3152 18.0007 84.3152 21.3128C84.3152 24.625 87.0003 27.3101 90.3125 27.3101Z" fill="#353744"/>
<path d="M90.3125 25.899C92.8454 25.899 94.8986 23.8457 94.8986 21.3129C94.8986 18.78 92.8454 16.7267 90.3125 16.7267C87.7797 16.7267 85.7264 18.78 85.7264 21.3129C85.7264 23.8457 87.7797 25.899 90.3125 25.899Z" fill="#55525B"/>
<path d="M91.2594 28.5727H89.3656C89.1913 28.5727 89.0499 28.714 89.0499 28.8883V32.3604C89.0499 33.0577 89.6152 33.623 90.3125 33.623C91.0098 33.623 91.5751 33.0577 91.5751 32.3604V28.8883C91.5751 28.714 91.4337 28.5727 91.2594 28.5727ZM90.3125 32.9917C89.9638 32.9917 89.6812 32.709 89.6812 32.3604C89.6812 32.0118 89.9638 31.7291 90.3125 31.7291C90.6612 31.7291 90.9438 32.0118 90.9438 32.3604C90.9438 32.709 90.6612 32.9917 90.3125 32.9917Z" fill="#F04B37"/>
<path d="M89.7338 31.5187C89.5885 31.5187 89.4708 31.4009 89.4708 31.2556V29.1514C89.4708 29.0061 89.5885 28.8883 89.7338 28.8883C89.8791 28.8883 89.9969 29.0061 89.9969 29.1514V31.2556C89.9969 31.4009 89.8791 31.5187 89.7338 31.5187Z" fill="#FF6955"/>
<path d="M103.991 26.5735H105.885V28.5726H103.991V26.5735Z" fill="#353744"/>
<path d="M104.938 27.6257C108.425 27.6257 111.251 24.7994 111.251 21.3129C111.251 17.8264 108.425 15 104.938 15C101.452 15 98.6254 17.8264 98.6254 21.3129C98.6254 24.7994 101.452 27.6257 104.938 27.6257Z" fill="#55525B"/>
<path d="M104.938 27.3101C108.25 27.3101 110.936 24.625 110.936 21.3128C110.936 18.0007 108.25 15.3156 104.938 15.3156C101.626 15.3156 98.941 18.0007 98.941 21.3128C98.941 24.625 101.626 27.3101 104.938 27.3101Z" fill="#353744"/>
<path d="M104.938 25.899C107.471 25.899 109.524 23.8457 109.524 21.3129C109.524 18.78 107.471 16.7267 104.938 16.7267C102.405 16.7267 100.352 18.78 100.352 21.3129C100.352 23.8457 102.405 25.899 104.938 25.899Z" fill="#55525B"/>
<path d="M105.885 28.5727H103.991C103.817 28.5727 103.676 28.714 103.676 28.8883V32.3604C103.676 33.0577 104.241 33.623 104.938 33.623C105.636 33.623 106.201 33.0577 106.201 32.3604V28.8883C106.201 28.714 106.06 28.5727 105.885 28.5727ZM104.938 32.9917C104.59 32.9917 104.307 32.709 104.307 32.3604C104.307 32.0118 104.59 31.7291 104.938 31.7291C105.287 31.7291 105.57 32.0118 105.57 32.3604C105.57 32.709 105.287 32.9917 104.938 32.9917Z" fill="#F04B37"/>
<path d="M104.36 31.5187C104.214 31.5187 104.096 31.4009 104.096 31.2556V29.1514C104.096 29.0061 104.214 28.8883 104.36 28.8883C104.505 28.8883 104.623 29.0061 104.623 29.1514V31.2556C104.623 31.4009 104.505 31.5187 104.36 31.5187Z" fill="#FF6955"/>
<path d="M14.9336 28.1916L14.9682 25.4933L15.2796 11.0335C15.2796 10.7568 15.4295 10.5377 15.7293 10.3763C16.0291 10.2148 16.4096 10.1341 16.8708 10.1341C17.9778 10.1341 18.5313 10.5262 18.5313 11.3103C18.5313 11.564 18.3929 13.5012 18.1162 17.1219C17.8625 20.7426 17.7357 22.9104 17.7357 23.6253C17.7357 23.6253 17.7357 24.8476 17.7357 27.2922C17.7357 29.0218 17.851 29.9674 18.0816 30.1288C18.4275 30.2441 18.8311 30.3018 19.2923 30.3018L24.2737 29.9558C25.3576 29.9558 25.8996 30.3479 25.8996 31.132C25.8996 31.7547 25.5998 32.2159 25.0002 32.5157C24.4236 32.7924 23.8471 32.9539 23.2705 33C22.694 33.0231 21.9906 33.0346 21.1604 33.0346C17.5396 33.0346 15.5794 32.9193 15.2796 32.6887C15.1181 32.5503 15.0259 32.0314 15.0028 31.132C14.9798 30.2095 14.9567 29.5638 14.9336 29.1948C14.9336 28.8258 14.9336 28.4914 14.9336 28.1916ZM33.1665 16.9835C34.3888 16.9835 35.5534 17.341 36.6604 18.0559C37.7674 18.7708 38.3208 19.6587 38.3208 20.7195C38.3208 21.7573 37.8711 22.772 36.9717 23.7637C36.0723 24.7323 34.8731 25.3204 33.3741 25.5279C32.7283 25.6202 31.7597 25.6663 30.4683 25.6663C30.7219 27.6266 31.2178 28.918 31.9558 29.5407C32.1864 29.7944 32.4977 29.9212 32.8898 29.9212C34.3196 29.9212 35.5188 29.4715 36.4874 28.5721C37.456 27.6496 38.1479 27.1884 38.563 27.1884C38.7475 27.1884 39.0242 27.3614 39.3932 27.7073C39.7622 28.0532 39.9467 28.3761 39.9467 28.6759C39.9467 29.2755 39.2203 30.1403 37.7674 31.2704C37.1216 31.8008 36.3375 32.2505 35.415 32.6195C34.5156 32.9654 33.6739 33.1384 32.8898 33.1384C30.8834 33.1384 29.4074 31.8469 28.4619 29.264C27.8623 27.6727 27.5625 25.92 27.5625 24.0059C27.5625 22.0917 28.0122 20.4428 28.9116 19.0591C29.811 17.6754 31.2293 16.9835 33.1665 16.9835ZM33.3395 19.3704C32.4631 19.3704 31.7136 19.8662 31.0909 20.8579C30.8603 21.2038 30.6412 21.9879 30.4337 23.2102C33.6623 23.2102 35.2767 22.4146 35.2767 20.8233C35.2767 19.8547 34.6309 19.3704 33.3395 19.3704ZM42.8331 16.8451L44.5627 16.8797C44.9547 16.8797 45.1738 16.8682 45.22 16.8451V9.7536C45.243 9.36155 45.439 9.02715 45.808 8.75041C46.177 8.47366 46.523 8.33529 46.8458 8.33529C47.1687 8.33529 47.4224 8.43907 47.6069 8.64663C47.8144 8.85418 47.9067 9.17705 47.8836 9.61523C47.8605 10.0534 47.849 12.4518 47.849 16.8105L51.8964 16.6722C52.5882 16.6722 52.9342 17.0758 52.9342 17.8829C52.9342 18.4825 52.7497 18.9322 52.3807 19.232C52.0348 19.5318 51.6542 19.6933 51.2391 19.7163C50.8471 19.7394 50.455 19.7509 50.063 19.7509L47.9528 19.7163C47.9528 20.6619 48.045 22.5299 48.2295 25.3204C48.4371 28.1109 48.5985 29.9212 48.7138 30.7515C48.8291 31.5586 48.8522 32.0891 48.783 32.3427C48.7138 32.5734 48.587 32.7348 48.4025 32.827C48.1027 32.9654 47.6991 33.0346 47.1918 33.0346C46.6844 33.0346 46.3846 32.7578 46.2923 32.2044C45.8311 29.1833 45.5198 25.0321 45.3583 19.7509C45.1508 19.774 44.3551 19.7855 42.9714 19.7855C41.5877 19.7855 40.8959 19.3819 40.8959 18.5748C40.8959 17.4217 41.5416 16.8451 42.8331 16.8451ZM54.4476 21.2384C54.4476 19.8778 54.9319 18.7939 55.9005 17.9867C56.8691 17.1795 57.9876 16.7759 59.256 16.7759C60.5475 16.7759 61.7813 17.0066 62.9574 17.4678C64.1336 17.929 64.7217 18.5402 64.7217 19.3012C64.7217 19.6933 64.5718 20.0046 64.272 20.2352C63.9722 20.4659 63.707 20.5812 63.4763 20.5812C63.2688 20.5812 63.0958 20.5812 62.9574 20.5812C62.8421 20.5581 62.3809 20.339 61.5737 19.9239C60.7896 19.5088 60.0632 19.3012 59.3944 19.3012C58.7256 19.3012 58.149 19.4742 57.6647 19.8201C57.2035 20.143 56.9729 20.6273 56.9729 21.273C56.9729 21.9188 57.2381 22.4261 57.7685 22.7951C58.322 23.1641 59.2791 23.487 60.6397 23.7637C62.0004 24.0174 63.0382 24.3864 63.7531 24.8707C64.4911 25.355 64.8601 26.2544 64.8601 27.5689C64.8601 29.4831 64.3527 30.8437 63.338 31.6509C62.3463 32.435 61.1356 32.827 59.7057 32.827C58.2759 32.827 57.0536 32.631 56.0389 32.239C55.0472 31.8469 54.5514 31.2588 54.5514 30.4747C54.5514 29.5753 55.0011 29.1256 55.9005 29.1256C56.1311 29.1256 56.6385 29.287 57.4226 29.6099C58.2067 29.9328 58.9793 30.0942 59.7403 30.0942C60.5244 30.0942 61.1125 29.852 61.5045 29.3677C61.9197 28.8604 62.1272 28.2838 62.1272 27.6381C62.1272 26.9924 61.862 26.5311 61.3316 26.2544C60.8012 25.9546 59.994 25.7124 58.9101 25.5279C57.8262 25.3434 57.0305 25.1474 56.5232 24.9399C55.1395 24.3864 54.4476 23.1526 54.4476 21.2384Z" fill="#F04B37"/>
<path d="M77.4783 10.3763C79.0235 10.3763 80.7301 10.6761 82.5981 11.2757C83.0132 11.5986 83.2208 11.956 83.2208 12.3481C83.2208 12.7171 83.0247 13.0515 82.6327 13.3513C82.2637 13.628 81.837 13.7664 81.3527 13.7664C80.1074 13.4435 78.9428 13.2821 77.8589 13.2821C75.3682 13.2821 73.4771 14.0201 72.1856 15.496C70.8942 16.972 70.2484 19.1629 70.2484 22.0687C70.2484 24.9745 71.0095 27.2461 72.5316 28.8834C73.3157 29.7367 74.2497 30.1634 75.3336 30.1634C76.4175 30.1634 78.1471 29.5868 80.5225 28.4337C81.3527 28.0417 81.9062 27.8457 82.183 27.8457C82.7826 27.8457 83.0824 28.157 83.0824 28.7797C83.0824 29.4023 82.7941 29.9212 82.2176 30.3363C80.2342 31.3741 78.6891 32.0775 77.5821 32.4465C76.4751 32.7924 75.5181 32.9654 74.7109 32.9654C73.0505 32.9654 71.6321 32.3543 70.456 31.132C68.3574 28.8719 67.308 25.7932 67.308 21.8957C67.308 17.9752 68.2997 15.0809 70.283 13.2129C72.2894 11.3218 74.6878 10.3763 77.4783 10.3763ZM126.375 31.4433C126.375 32.5272 125.879 33.0692 124.888 33.0692C124.472 33.0692 123.907 32.0545 123.193 30.025C122.478 27.9725 121.521 26.3928 120.321 25.2858C120.206 25.4472 119.71 25.9085 118.834 26.6695C117.981 27.4075 117.473 27.8572 117.312 28.0186V31.4779C117.266 31.8238 117.208 32.0891 117.139 32.2735C117.07 32.458 116.908 32.631 116.654 32.7924C116.424 32.9539 116.101 33.0346 115.686 33.0346C115.063 33.0346 114.752 32.6541 114.752 31.893C114.752 29.7483 114.66 26.4274 114.475 21.9303C114.291 17.4102 114.198 13.3628 114.198 9.78819C114.198 9.35002 114.371 9.00409 114.717 8.75041C115.086 8.49673 115.467 8.36989 115.859 8.36989C116.389 8.36989 116.712 8.70428 116.827 9.37308V15.496C116.827 16.234 116.839 16.7875 116.862 17.1565C116.885 17.5255 116.908 18.0789 116.931 18.8169C116.977 20.339 117.058 22.0571 117.173 23.9713C117.842 23.4639 118.695 22.6683 119.733 21.5844C120.794 20.4774 121.59 19.5318 122.12 18.7477C122.95 17.4332 123.711 16.7759 124.403 16.7759C124.588 16.7759 124.772 16.8221 124.957 16.9143C125.441 17.1911 125.683 17.5139 125.683 17.8829C125.683 18.2519 125.522 18.7362 125.199 19.3358C124.369 20.7657 123.412 22.0687 122.328 23.2448C123.365 24.3979 124.403 26.0468 125.441 28.1916C126.064 29.5753 126.375 30.6592 126.375 31.4433Z" fill="#55525B"/>
</g>
<defs>
<clipPath id="clip0">
<rect width="150" height="49" fill="white"/>
</clipPath>
</defs>
</svg>
